<?xml version="1.0" encoding="UTF-8" standalone="no"?>
<!DOCTYPE svg PUBLIC "-//W3C//DTD SVG 1.1//EN"
 "http://www.w3.org/Graphics/SVG/1.1/DTD/svg11.dtd">
<!-- Generated by graphviz version 8.0.5 (20230430.1635)
 -->
<!-- Title: rating Pages: 1 -->
<svg width="328pt" height="289pt"
 viewBox="14.40 14.40 313.26 274.40" xmlns="http://www.w3.org/2000/svg" xmlns:xlink="http://www.w3.org/1999/xlink">
<g id="graph0" class="graph" transform="scale(1 1) rotate(0) translate(18.4 270.4)">
<title>rating</title>
<polygon fill="white" stroke="none" points="-4,4 -4,-256 294.86,-256 294.86,4 -4,4"/>
<!-- root -->
<g id="node1" class="node">
<title>root</title>
<ellipse fill="none" stroke="black" stroke-width="0.5" cx="182.23" cy="-234" rx="27" ry="18"/>
<text text-anchor="start" x="180.36" y="-228.2" font-family="Helvetica,sans-Serif" font-size="14.00">/</text>
</g>
<!-- home -->
<g id="node3" class="node">
<title>home</title>
<ellipse fill="none" stroke="black" stroke-width="0.5" cx="142.23" cy="-162" rx="35.26" ry="18"/>
<text text-anchor="start" x="123.11" y="-156.2" font-family="Helvetica,sans-Serif" font-size="14.00">home/</text>
</g>
<!-- root&#45;&gt;home -->
<g id="edge1" class="edge">
<title>root&#45;&gt;home</title>
<path fill="none" stroke="black" d="M173.16,-217.12C168.37,-208.73 162.37,-198.24 156.94,-188.73"/>
<polygon fill="black" stroke="black" points="159.55,-187.25 151.55,-180.31 153.48,-190.73 159.55,-187.25"/>
</g>
<!-- tmp -->
<g id="node4" class="node">
<title>tmp</title>
<ellipse fill="none" stroke="black" stroke-width="0.5" cx="223.23" cy="-162" rx="27.95" ry="18"/>
<text text-anchor="start" x="209.73" y="-156.2" font-family="Helvetica,sans-Serif" font-size="14.00">tmp/</text>
</g>
<!-- root&#45;&gt;tmp -->
<g id="edge6" class="edge">
<title>root&#45;&gt;tmp</title>
<path fill="none" stroke="black" d="M191.54,-217.12C196.57,-208.52 202.9,-197.72 208.58,-188.02"/>
<polygon fill="black" stroke="black" points="211.93,-190.22 213.97,-179.82 205.89,-186.68 211.93,-190.22"/>
</g>
<!-- joel -->
<g id="node2" class="node">
<title>joel</title>
<ellipse fill="none" stroke="black" stroke-width="0.5" cx="141.23" cy="-90" rx="27" ry="18"/>
<text text-anchor="start" x="128.86" y="-84.2" font-family="Helvetica,sans-Serif" font-size="14.00">joel/</text>
</g>
<!-- test -->
<g id="node5" class="node">
<title>test</title>
<ellipse fill="none" stroke="black" stroke-width="0.5" cx="36.23" cy="-18" rx="36.23" ry="18"/>
<text text-anchor="start" x="16.36" y="-12.2" font-family="Helvetica,sans-Serif" font-size="14.00">test.py</text>
</g>
<!-- joel&#45;&gt;test -->
<g id="edge3" class="edge">
<title>joel&#45;&gt;test</title>
<path fill="none" stroke="black" d="M122.94,-76.81C107.23,-66.33 84.28,-51.03 65.94,-38.8"/>
<polygon fill="black" stroke="black" points="68.09,-35.37 57.83,-32.73 64.21,-41.19 68.09,-35.37"/>
</g>
<!-- index -->
<g id="node6" class="node">
<title>index</title>
<ellipse fill="none" stroke="black" stroke-width="0.5" cx="141.23" cy="-18" rx="50.86" ry="18"/>
<text text-anchor="start" x="110.11" y="-12.2" font-family="Helvetica,sans-Serif" font-size="14.00">index.html</text>
</g>
<!-- joel&#45;&gt;index -->
<g id="edge4" class="edge">
<title>joel&#45;&gt;index</title>
<path fill="none" stroke="black" d="M141.23,-72.05C141.23,-64.4 141.23,-55.16 141.23,-46.56"/>
<polygon fill="black" stroke="black" points="144.73,-46.79 141.23,-36.79 137.73,-46.79 144.73,-46.79"/>
</g>
<!-- tests -->
<g id="node7" class="node">
<title>tests</title>
<ellipse fill="none" stroke="black" stroke-width="0.5" cx="250.23" cy="-18" rx="40.62" ry="18"/>
<text text-anchor="start" x="226.98" y="-12.2" font-family="Helvetica,sans-Serif" font-size="14.00">tests.py</text>
</g>
<!-- joel&#45;&gt;tests -->
<g id="edge5" class="edge">
<title>joel&#45;&gt;tests</title>
<path fill="none" stroke="black" d="M159.72,-77.13C175.94,-66.71 199.84,-51.36 219.01,-39.05"/>
<polygon fill="black" stroke="black" points="220.74,-41.46 227.27,-33.11 216.96,-35.57 220.74,-41.46"/>
</g>
<!-- home&#45;&gt;joel -->
<g id="edge2" class="edge">
<title>home&#45;&gt;joel</title>
<path fill="none" stroke="black" d="M141.99,-144.05C141.88,-136.4 141.75,-127.16 141.63,-118.56"/>
<polygon fill="black" stroke="black" points="145.12,-118.74 141.47,-108.79 138.12,-118.84 145.12,-118.74"/>
</g>
<!-- play -->
<g id="node8" class="node">
<title>play</title>
<ellipse fill="none" stroke="black" stroke-width="0.5" cx="224.23" cy="-90" rx="37.7" ry="18"/>
<text text-anchor="start" x="203.23" y="-84.2" font-family="Helvetica,sans-Serif" font-size="14.00">play.txt</text>
</g>
<!-- tmp&#45;&gt;play -->
<g id="edge7" class="edge">
<title>tmp&#45;&gt;play</title>
<path fill="none" stroke="black" d="M223.48,-144.05C223.59,-136.4 223.72,-127.16 223.84,-118.56"/>
<polygon fill="black" stroke="black" points="227.35,-118.84 223.99,-108.79 220.35,-118.74 227.35,-118.84"/>
</g>
</g>
</svg>
