<?xml version="1.0" encoding="UTF-8" standalone="no"?>
<!DOCTYPE svg PUBLIC "-//W3C//DTD SVG 1.1//EN"
 "http://www.w3.org/Graphics/SVG/1.1/DTD/svg11.dtd">
<!-- Generated by graphviz version 8.0.5 (20230430.1635)
 -->
<!-- Title: fs Pages: 1 -->
<svg width="361pt" height="289pt"
 viewBox="14.40 14.40 346.70 274.40" xmlns="http://www.w3.org/2000/svg" xmlns:xlink="http://www.w3.org/1999/xlink">
<g id="graph0" class="graph" transform="scale(1 1) rotate(0) translate(18.4 270.4)">
<title>fs</title>
<polygon fill="white" stroke="none" points="-4,4 -4,-256 328.3,-256 328.3,4 -4,4"/>
<!-- root -->
<g id="node1" class="node">
<title>root</title>
<ellipse fill="none" stroke="black" stroke-width="0.5" cx="210.83" cy="-234" rx="27" ry="18"/>
<text text-anchor="middle" x="210.83" y="-228.2" font-family="Helvetica,sans-Serif" font-size="14.00">/</text>
</g>
<!-- users -->
<g id="node2" class="node">
<title>users</title>
<ellipse fill="none" stroke="black" stroke-width="0.5" cx="210.83" cy="-162" rx="35.75" ry="18"/>
<text text-anchor="middle" x="210.83" y="-156.2" font-family="Helvetica,sans-Serif" font-size="14.00">Users/</text>
</g>
<!-- root&#45;&gt;users -->
<g id="edge1" class="edge">
<title>root&#45;&gt;users</title>
<path fill="none" stroke="black" d="M210.83,-216.05C210.83,-208.4 210.83,-199.16 210.83,-190.56"/>
<polygon fill="black" stroke="black" points="214.33,-190.79 210.83,-180.79 207.33,-190.79 214.33,-190.79"/>
</g>
<!-- jane -->
<g id="node3" class="node">
<title>jane</title>
<ellipse fill="none" stroke="black" stroke-width="0.5" cx="167.83" cy="-90" rx="29.41" ry="18"/>
<text text-anchor="middle" x="167.83" y="-84.2" font-family="Helvetica,sans-Serif" font-size="14.00">jane/</text>
</g>
<!-- users&#45;&gt;jane -->
<g id="edge2" class="edge">
<title>users&#45;&gt;jane</title>
<path fill="none" stroke="black" d="M200.86,-144.76C195.58,-136.16 188.97,-125.41 183.06,-115.79"/>
<polygon fill="black" stroke="black" points="185.67,-114.35 177.46,-107.67 179.71,-118.02 185.67,-114.35"/>
</g>
<!-- jessica -->
<g id="node4" class="node">
<title>jessica</title>
<ellipse fill="none" stroke="black" stroke-width="0.5" cx="265.83" cy="-90" rx="39.65" ry="18"/>
<text text-anchor="middle" x="265.83" y="-84.2" font-family="Helvetica,sans-Serif" font-size="14.00">jessica/</text>
</g>
<!-- users&#45;&gt;jessica -->
<g id="edge3" class="edge">
<title>users&#45;&gt;jessica</title>
<path fill="none" stroke="black" d="M223.04,-145.46C229.99,-136.62 238.85,-125.34 246.71,-115.34"/>
<polygon fill="black" stroke="black" points="249.85,-118 253.28,-107.98 244.35,-113.68 249.85,-118"/>
</g>
<!-- resume -->
<g id="node5" class="node">
<title>resume</title>
<ellipse fill="none" stroke="black" stroke-width="0.5" cx="51.83" cy="-18" rx="51.83" ry="18"/>
<text text-anchor="middle" x="51.83" y="-12.2" font-family="Helvetica,sans-Serif" font-size="14.00">resume.txt</text>
</g>
<!-- jane&#45;&gt;resume -->
<g id="edge4" class="edge">
<title>jane&#45;&gt;resume</title>
<path fill="none" stroke="black" d="M147.89,-76.97C130.78,-66.64 105.75,-51.54 85.54,-39.34"/>
<polygon fill="black" stroke="black" points="87.71,-35.96 77.34,-33.79 84.1,-41.95 87.71,-35.96"/>
</g>
<!-- recipes -->
<g id="node7" class="node">
<title>recipes</title>
<ellipse fill="none" stroke="black" stroke-width="0.5" cx="167.83" cy="-18" rx="45.98" ry="18"/>
<text text-anchor="middle" x="167.83" y="-12.2" font-family="Helvetica,sans-Serif" font-size="14.00">recipe.txt</text>
</g>
<!-- jane&#45;&gt;recipes -->
<g id="edge5" class="edge">
<title>jane&#45;&gt;recipes</title>
<path fill="none" stroke="black" d="M167.83,-72.05C167.83,-64.4 167.83,-55.16 167.83,-46.56"/>
<polygon fill="black" stroke="black" points="171.33,-46.79 167.83,-36.79 164.33,-46.79 171.33,-46.79"/>
</g>
<!-- server -->
<g id="node6" class="node">
<title>server</title>
<ellipse fill="none" stroke="black" stroke-width="0.5" cx="277.83" cy="-18" rx="46.47" ry="18"/>
<text text-anchor="middle" x="277.83" y="-12.2" font-family="Helvetica,sans-Serif" font-size="14.00">server.py</text>
</g>
<!-- jessica&#45;&gt;server -->
<g id="edge6" class="edge">
<title>jessica&#45;&gt;server</title>
<path fill="none" stroke="black" d="M268.74,-72.05C270.05,-64.4 271.63,-55.16 273.11,-46.56"/>
<polygon fill="black" stroke="black" points="276.71,-47.24 274.95,-36.79 269.82,-46.05 276.71,-47.24"/>
</g>
</g>
</svg>
