<?xml version="1.0" encoding="UTF-8" standalone="no"?>
<!DOCTYPE svg PUBLIC "-//W3C//DTD SVG 1.1//EN"
 "http://www.w3.org/Graphics/SVG/1.1/DTD/svg11.dtd">
<!-- Generated by graphviz version 8.0.5 (20230430.1635)
 -->
<!-- Title: name Pages: 1 -->
<svg width="365pt" height="539pt"
 viewBox="14.40 14.40 350.52 524.40" xmlns="http://www.w3.org/2000/svg" xmlns:xlink="http://www.w3.org/1999/xlink">
<g id="graph0" class="graph" transform="scale(1 1) rotate(0) translate(18.4 520.4)">
<title>name</title>
<polygon fill="white" stroke="none" points="-4,4 -4,-506 332.12,-506 332.12,4 -4,4"/>
<!-- function -->
<g id="node1" class="node">
<title>function</title>
<ellipse fill="none" stroke="black" stroke-width="0.5" cx="68.89" cy="-484" rx="49.88" ry="18"/>
<text text-anchor="start" x="38.52" y="-478.2" font-family="Helvetica,sans-Serif" font-size="14.00">Function()</text>
</g>
<!-- loop -->
<g id="node2" class="node">
<title>loop</title>
<ellipse fill="none" stroke="black" stroke-width="0.5" cx="68.89" cy="-411" rx="68.89" ry="18"/>
<text text-anchor="start" x="23.89" y="-405.2" font-family="Helvetica,sans-Serif" font-size="14.00">For Item in List</text>
</g>
<!-- function&#45;&gt;loop -->
<g id="edge1" class="edge">
<title>function&#45;&gt;loop</title>
<path fill="none" stroke="black" d="M68.89,-466.17C68.89,-458.22 68.89,-448.51 68.89,-439.52"/>
<polygon fill="black" stroke="black" points="72.39,-439.71 68.89,-429.71 65.39,-439.71 72.39,-439.71"/>
</g>
<!-- islist -->
<g id="node3" class="node">
<title>islist</title>
<ellipse fill="none" stroke="black" stroke-width="0.5" cx="68.89" cy="-338" rx="65.48" ry="18"/>
<text text-anchor="start" x="26.52" y="-332.2" font-family="Helvetica,sans-Serif" font-size="14.00">Is Item a List?</text>
</g>
<!-- loop&#45;&gt;islist -->
<g id="edge2" class="edge">
<title>loop&#45;&gt;islist</title>
<path fill="none" stroke="black" d="M68.89,-393.17C68.89,-385.22 68.89,-375.51 68.89,-366.52"/>
<polygon fill="black" stroke="black" points="72.39,-366.71 68.89,-356.71 65.39,-366.71 72.39,-366.71"/>
</g>
<!-- print -->
<g id="node4" class="node">
<title>print</title>
<ellipse fill="none" stroke="black" stroke-width="0.5" cx="45.89" cy="-251" rx="28.43" ry="18"/>
<text text-anchor="start" x="32.02" y="-245.2" font-family="Helvetica,sans-Serif" font-size="14.00">Print</text>
</g>
<!-- islist&#45;&gt;print -->
<g id="edge4" class="edge">
<title>islist&#45;&gt;print</title>
<path fill="none" stroke="black" d="M64.35,-320.21C61.2,-308.56 56.93,-292.8 53.3,-279.36"/>
<polygon fill="black" stroke="black" points="56.42,-278.5 50.43,-269.76 49.66,-280.33 56.42,-278.5"/>
<text text-anchor="middle" x="70.14" y="-288.7" font-family="Helvetica,sans-Serif" font-size="14.00"> &#160;no</text>
</g>
<!-- loop1 -->
<g id="node5" class="node">
<title>loop1</title>
<ellipse fill="none" stroke="black" stroke-width="0.5" cx="160.89" cy="-251" rx="68.89" ry="18"/>
<text text-anchor="start" x="115.89" y="-245.2" font-family="Helvetica,sans-Serif" font-size="14.00">For Item in List</text>
</g>
<!-- islist&#45;&gt;loop1 -->
<g id="edge3" class="edge">
<title>islist&#45;&gt;loop1</title>
<path fill="none" stroke="black" d="M86.2,-321.01C100.12,-308.15 119.87,-289.9 135.57,-275.4"/>
<polygon fill="black" stroke="black" points="137.38,-278.56 142.35,-269.21 132.63,-273.42 137.38,-278.56"/>
<text text-anchor="middle" x="135.14" y="-288.7" font-family="Helvetica,sans-Serif" font-size="14.00"> &#160;yes</text>
</g>
<!-- islist1 -->
<g id="node6" class="node">
<title>islist1</title>
<ellipse fill="none" stroke="black" stroke-width="0.5" cx="160.89" cy="-178" rx="65.48" ry="18"/>
<text text-anchor="start" x="118.52" y="-172.2" font-family="Helvetica,sans-Serif" font-size="14.00">Is Item a List?</text>
</g>
<!-- loop1&#45;&gt;islist1 -->
<g id="edge5" class="edge">
<title>loop1&#45;&gt;islist1</title>
<path fill="none" stroke="black" d="M160.89,-233.17C160.89,-225.22 160.89,-215.51 160.89,-206.52"/>
<polygon fill="black" stroke="black" points="164.39,-206.71 160.89,-196.71 157.39,-206.71 164.39,-206.71"/>
</g>
<!-- print1 -->
<g id="node7" class="node">
<title>print1</title>
<ellipse fill="none" stroke="black" stroke-width="0.5" cx="137.89" cy="-91" rx="28.43" ry="18"/>
<text text-anchor="start" x="124.02" y="-85.2" font-family="Helvetica,sans-Serif" font-size="14.00">Print</text>
</g>
<!-- islist1&#45;&gt;print1 -->
<g id="edge7" class="edge">
<title>islist1&#45;&gt;print1</title>
<path fill="none" stroke="black" d="M156.35,-160.21C153.2,-148.56 148.93,-132.8 145.3,-119.36"/>
<polygon fill="black" stroke="black" points="148.42,-118.5 142.43,-109.76 141.66,-120.33 148.42,-118.5"/>
<text text-anchor="middle" x="162.14" y="-128.7" font-family="Helvetica,sans-Serif" font-size="14.00"> &#160;no</text>
</g>
<!-- loop2 -->
<g id="node8" class="node">
<title>loop2</title>
<ellipse fill="none" stroke="black" stroke-width="0.5" cx="252.89" cy="-91" rx="68.89" ry="18"/>
<text text-anchor="start" x="207.89" y="-85.2" font-family="Helvetica,sans-Serif" font-size="14.00">For Item in List</text>
</g>
<!-- islist1&#45;&gt;loop2 -->
<g id="edge6" class="edge">
<title>islist1&#45;&gt;loop2</title>
<path fill="none" stroke="black" d="M178.2,-161.01C192.12,-148.15 211.87,-129.9 227.57,-115.4"/>
<polygon fill="black" stroke="black" points="229.38,-118.56 234.35,-109.21 224.63,-113.42 229.38,-118.56"/>
<text text-anchor="middle" x="226.14" y="-128.7" font-family="Helvetica,sans-Serif" font-size="14.00"> &#160;yes</text>
</g>
<!-- islist2 -->
<g id="node9" class="node">
<title>islist2</title>
<ellipse fill="none" stroke="black" stroke-width="0.5" cx="252.89" cy="-18" rx="75.23" ry="18"/>
<text text-anchor="start" x="203.02" y="-12.2" font-family="Helvetica,sans-Serif" font-size="14.00">Is Item a List? ...</text>
</g>
<!-- loop2&#45;&gt;islist2 -->
<g id="edge8" class="edge">
<title>loop2&#45;&gt;islist2</title>
<path fill="none" stroke="black" d="M252.89,-73.17C252.89,-65.22 252.89,-55.51 252.89,-46.52"/>
<polygon fill="black" stroke="black" points="256.39,-46.71 252.89,-36.71 249.39,-46.71 256.39,-46.71"/>
</g>
</g>
</svg>
