<?xml version="1.0" encoding="UTF-8" standalone="no"?>
<!DOCTYPE svg PUBLIC "-//W3C//DTD SVG 1.1//EN"
 "http://www.w3.org/Graphics/SVG/1.1/DTD/svg11.dtd">
<!-- Generated by graphviz version 8.0.5 (20230430.1635)
 -->
<!-- Title: name Pages: 1 -->
<svg width="241pt" height="292pt"
 viewBox="14.40 14.40 226.79 277.40" xmlns="http://www.w3.org/2000/svg" xmlns:xlink="http://www.w3.org/1999/xlink">
<g id="graph0" class="graph" transform="scale(1 1) rotate(0) translate(18.4 273.4)">
<title>name</title>
<polygon fill="white" stroke="none" points="-4,4 -4,-259 208.39,-259 208.39,4 -4,4"/>
<!-- function -->
<g id="node1" class="node">
<title>function</title>
<ellipse fill="none" stroke="black" stroke-width="0.5" cx="68.89" cy="-237" rx="49.88" ry="18"/>
<text text-anchor="start" x="38.52" y="-231.2" font-family="Helvetica,sans-Serif" font-size="14.00">Function()</text>
</g>
<!-- loop -->
<g id="node2" class="node">
<title>loop</title>
<ellipse fill="none" stroke="black" stroke-width="0.5" cx="68.89" cy="-164" rx="68.89" ry="18"/>
<text text-anchor="start" x="23.89" y="-158.2" font-family="Helvetica,sans-Serif" font-size="14.00">For Item in List</text>
</g>
<!-- function&#45;&gt;loop -->
<g id="edge1" class="edge">
<title>function&#45;&gt;loop</title>
<path fill="none" stroke="black" d="M68.89,-219.17C68.89,-211.22 68.89,-201.51 68.89,-192.52"/>
<polygon fill="black" stroke="black" points="72.39,-192.71 68.89,-182.71 65.39,-192.71 72.39,-192.71"/>
</g>
<!-- islist -->
<g id="node3" class="node">
<title>islist</title>
<ellipse fill="none" stroke="black" stroke-width="0.5" cx="68.89" cy="-91" rx="65.48" ry="18"/>
<text text-anchor="start" x="26.52" y="-85.2" font-family="Helvetica,sans-Serif" font-size="14.00">Is Item a List?</text>
</g>
<!-- loop&#45;&gt;islist -->
<g id="edge2" class="edge">
<title>loop&#45;&gt;islist</title>
<path fill="none" stroke="black" d="M68.89,-146.17C68.89,-138.22 68.89,-128.51 68.89,-119.52"/>
<polygon fill="black" stroke="black" points="72.39,-119.71 68.89,-109.71 65.39,-119.71 72.39,-119.71"/>
</g>
<!-- islist&#45;&gt;function -->
<g id="edge3" class="edge">
<title>islist&#45;&gt;function</title>
<path fill="none" stroke="black" d="M102.97,-106.27C119.42,-115.1 137.57,-128.2 146.89,-146 154.32,-160.17 154.32,-167.83 146.89,-182 138.81,-197.44 124.08,-209.34 109.58,-217.99"/>
<polygon fill="black" stroke="black" points="108.21,-215.3 101.16,-223.21 111.6,-221.43 108.21,-215.3"/>
<text text-anchor="middle" x="178.14" y="-158.2" font-family="Helvetica,sans-Serif" font-size="14.00"> &#160;recurse</text>
<text text-anchor="middle" x="126.59" y="-107.97" font-family="Helvetica,sans-Serif" font-size="14.00"> &#160;&#160;&#160;&#160;&#160;&#160;yes</text>
</g>
<!-- print -->
<g id="node4" class="node">
<title>print</title>
<ellipse fill="none" stroke="black" stroke-width="0.5" cx="68.89" cy="-18" rx="28.43" ry="18"/>
<text text-anchor="start" x="55.02" y="-12.2" font-family="Helvetica,sans-Serif" font-size="14.00">Print</text>
</g>
<!-- islist&#45;&gt;print -->
<g id="edge4" class="edge">
<title>islist&#45;&gt;print</title>
<path fill="none" stroke="black" d="M68.89,-73.17C68.89,-65.22 68.89,-55.51 68.89,-46.52"/>
<polygon fill="black" stroke="black" points="72.39,-46.71 68.89,-36.71 65.39,-46.71 72.39,-46.71"/>
<text text-anchor="middle" x="57.64" y="-59.87" font-family="Helvetica,sans-Serif" font-size="14.00">no &#160;</text>
</g>
</g>
</svg>
